<svg xmlns="http://www.w3.org/2000/svg" viewBox="0 0 312 53">
  <g>
			<path d="M39.35,44.61l-1.12.7,1.54,1.31Zm0,0-1.12.7,1.54,1.31Zm0,0-1.12.7,1.54,1.31Zm4.12-1.14-.9-1-.26.24c-.52.49-.59.92-.1,1.43a.83.83,0,0,0,1.31.06C43.87,43.9,43.75,43.77,43.47,43.47Zm2.2-5.5-.74,1.09,1.93.59Zm-2.2,5.5-.9-1-.26.24c-.52.49-.59.92-.1,1.43a.83.83,0,0,0,1.31.06C43.87,43.9,43.75,43.77,43.47,43.47Zm-4.12,1.14-1.12.7,1.54,1.31ZM45.67,38l-.74,1.09,1.93.59Zm-6.32,6.64-1.12.7,1.54,1.31Zm4.12-1.14-.9-1-.26.24c-.52.49-.59.92-.1,1.43a.83.83,0,0,0,1.31.06C43.87,43.9,43.75,43.77,43.47,43.47Zm2.2-5.5-.74,1.09,1.93.59Zm-2.2,5.5-.9-1-.26.24c-.52.49-.59.92-.1,1.43a.83.83,0,0,0,1.31.06C43.87,43.9,43.75,43.77,43.47,43.47Zm-4.12,1.14-1.12.7,1.54,1.31Zm11.83-22c-.1-.68-.77-1-2.21-.83s-2,.72-1.9,1.36c.16,1.08,1.42,1,2.22.87C50.82,23.79,51.27,23.25,51.18,22.61ZM45.67,38l-.74,1.09,1.93.59Zm-6.32,6.64-1.12.7,1.54,1.31Zm4.12-1.14-.9-1-.26.24c-.52.49-.59.92-.1,1.43a.83.83,0,0,0,1.31.06C43.87,43.9,43.75,43.77,43.47,43.47Zm2.2-5.5-.74,1.09,1.93.59Zm-2.2,5.5-.9-1-.26.24c-.52.49-.59.92-.1,1.43a.83.83,0,0,0,1.31.06C43.87,43.9,43.75,43.77,43.47,43.47Zm-4.12,1.14-1.12.7,1.54,1.31Zm11.83-22c-.1-.68-.77-1-2.21-.83s-2,.72-1.9,1.36c.16,1.08,1.42,1,2.22.87C50.82,23.79,51.27,23.25,51.18,22.61Zm0,0c-.1-.68-.77-1-2.21-.83s-2,.72-1.9,1.36c.16,1.08,1.42,1,2.22.87C50.82,23.79,51.27,23.25,51.18,22.61ZM45.67,38l-.74,1.09,1.93.59Zm-6.32,6.64-1.12.7,1.54,1.31Zm4.12-1.14-.9-1-.26.24c-.52.49-.59.92-.1,1.43a.83.83,0,0,0,1.31.06C43.87,43.9,43.75,43.77,43.47,43.47Zm2.2-5.5-.74,1.09,1.93.59Zm-2.2,5.5-.9-1-.26.24c-.52.49-.59.92-.1,1.43a.83.83,0,0,0,1.31.06C43.87,43.9,43.75,43.77,43.47,43.47Zm-4.12,1.14-1.12.7,1.54,1.31Zm11.83-22c-.1-.68-.77-1-2.21-.83s-2,.72-1.9,1.36c.16,1.08,1.42,1,2.22.87C50.82,23.79,51.27,23.25,51.18,22.61Zm0,0c-.1-.68-.77-1-2.21-.83s-2,.72-1.9,1.36c.16,1.08,1.42,1,2.22.87C50.82,23.79,51.27,23.25,51.18,22.61ZM45.67,38l-.74,1.09,1.93.59ZM28,1.5c-.69,0-1.18.55-1.25,2s.31,2.09,1,2.13c1.09.06,1.24-1.19,1.29-2C29.12,2.08,28.68,1.53,28,1.5ZM39.35,44.61l-1.12.7,1.54,1.31Zm4.12-1.14-.9-1-.26.24c-.52.49-.59.92-.1,1.43a.83.83,0,0,0,1.31.06C43.87,43.9,43.75,43.77,43.47,43.47Zm2.2-5.5-.74,1.09,1.93.59Zm-2.2,5.5-.9-1-.26.24c-.52.49-.59.92-.1,1.43a.83.83,0,0,0,1.31.06C43.87,43.9,43.75,43.77,43.47,43.47Zm-4.12,1.14-1.12.7,1.54,1.31ZM28,1.5c-.69,0-1.18.55-1.25,2s.31,2.09,1,2.13c1.09.06,1.24-1.19,1.29-2C29.12,2.08,28.68,1.53,28,1.5ZM51.18,22.61c-.1-.68-.77-1-2.21-.83s-2,.72-1.9,1.36c.16,1.08,1.42,1,2.22.87C50.82,23.79,51.27,23.25,51.18,22.61Zm0,0c-.1-.68-.77-1-2.21-.83s-2,.72-1.9,1.36c.16,1.08,1.42,1,2.22.87C50.82,23.79,51.27,23.25,51.18,22.61ZM45.67,38l-.74,1.09,1.93.59ZM28,1.5c-.69,0-1.18.55-1.25,2s.31,2.09,1,2.13c1.09.06,1.24-1.19,1.29-2C29.12,2.08,28.68,1.53,28,1.5ZM39.35,44.61l-1.12.7,1.54,1.31Zm4.12-1.14-.9-1-.26.24c-.52.49-.59.92-.1,1.43a.83.83,0,0,0,1.31.06C43.87,43.9,43.75,43.77,43.47,43.47Zm2.2-5.5-.74,1.09,1.93.59Zm-2.2,5.5-.9-1-.26.24c-.52.49-.59.92-.1,1.43a.83.83,0,0,0,1.31.06C43.87,43.9,43.75,43.77,43.47,43.47Zm-4.12,1.14-1.12.7,1.54,1.31ZM28,1.5c-.69,0-1.18.55-1.25,2s.31,2.09,1,2.13c1.09.06,1.24-1.19,1.29-2C29.12,2.08,28.68,1.53,28,1.5ZM51.18,22.61c-.1-.68-.77-1-2.21-.83s-2,.72-1.9,1.36c.16,1.08,1.42,1,2.22.87C50.82,23.79,51.27,23.25,51.18,22.61Zm0,0c-.1-.68-.77-1-2.21-.83s-2,.72-1.9,1.36c.16,1.08,1.42,1,2.22.87C50.82,23.79,51.27,23.25,51.18,22.61ZM45.67,38l-.74,1.09,1.93.59ZM28,1.5c-.69,0-1.18.55-1.25,2s.31,2.09,1,2.13c1.09.06,1.24-1.19,1.29-2C29.12,2.08,28.68,1.53,28,1.5ZM39.35,44.61l-1.12.7,1.54,1.31Zm4.12-1.14-.9-1-.26.24c-.52.49-.59.92-.1,1.43a.83.83,0,0,0,1.31.06C43.87,43.9,43.75,43.77,43.47,43.47Zm2.2-5.5-.74,1.09,1.93.59Zm-2.2,5.5-.9-1-.26.24c-.52.49-.59.92-.1,1.43a.83.83,0,0,0,1.31.06C43.87,43.9,43.75,43.77,43.47,43.47Zm-4.12,1.14-1.12.7,1.54,1.31ZM28,1.5c-.69,0-1.18.55-1.25,2s.31,2.09,1,2.13c1.09.06,1.24-1.19,1.29-2C29.12,2.08,28.68,1.53,28,1.5ZM51.18,22.61c-.1-.68-.77-1-2.21-.83s-2,.72-1.9,1.36c.16,1.08,1.42,1,2.22.87C50.82,23.79,51.27,23.25,51.18,22.61Zm0,0c-.1-.68-.77-1-2.21-.83s-2,.72-1.9,1.36c.16,1.08,1.42,1,2.22.87C50.82,23.79,51.27,23.25,51.18,22.61ZM45.67,38l-.74,1.09,1.93.59ZM28,1.5c-.69,0-1.18.55-1.25,2s.31,2.09,1,2.13c1.09.06,1.24-1.19,1.29-2C29.12,2.08,28.68,1.53,28,1.5ZM39.35,44.61l-1.12.7,1.54,1.31Zm4.12-1.14-.9-1-.26.24c-.52.49-.59.92-.1,1.43a.83.83,0,0,0,1.31.06C43.87,43.9,43.75,43.77,43.47,43.47Zm2.2-5.5-.74,1.09,1.93.59Zm-2.2,5.5-.9-1-.26.24c-.52.49-.59.92-.1,1.43a.83.83,0,0,0,1.31.06C43.87,43.9,43.75,43.77,43.47,43.47Zm-4.12,1.14-1.12.7,1.54,1.31ZM28,1.5c-.69,0-1.18.55-1.25,2s.31,2.09,1,2.13c1.09.06,1.24-1.19,1.29-2C29.12,2.08,28.68,1.53,28,1.5ZM51.18,22.61c-.1-.68-.77-1-2.21-.83s-2,.72-1.9,1.36c.16,1.08,1.42,1,2.22.87C50.82,23.79,51.27,23.25,51.18,22.61Zm0,0c-.1-.68-.77-1-2.21-.83s-2,.72-1.9,1.36c.16,1.08,1.42,1,2.22.87C50.82,23.79,51.27,23.25,51.18,22.61ZM45.67,38l-.74,1.09,1.93.59ZM3,23.36c-.62-.05-.85.3-.9.87a.62.62,0,0,0,.08.43.46.46,0,0,0,.32.1l1.26.11,0-.34C3.81,23.77,3.59,23.42,3,23.36Zm2.12,0c-.53,0-1,.11-1,1.2l0,.35L5.26,25c.51,0,.74.07.79-.55A.94.94,0,0,0,5.08,23.34Zm.43-5.41c-1.46-.49-2.11-.21-2.31.4s.21,1.28,1.59,1.74,2.1.26,2.31-.36C7.45,18.68,6.29,18.19,5.51,17.93ZM28,1.5c-.69,0-1.18.55-1.25,2s.31,2.09,1,2.13c1.09.06,1.24-1.19,1.29-2C29.12,2.08,28.68,1.53,28,1.5ZM39.35,44.61l-1.12.7,1.54,1.31Zm4.12-1.14-.9-1-.26.24c-.52.49-.59.92-.1,1.43a.83.83,0,0,0,1.31.06C43.87,43.9,43.75,43.77,43.47,43.47Zm2.2-5.5-.74,1.09,1.93.59Zm-2.2,5.5-.9-1-.26.24c-.52.49-.59.92-.1,1.43a.83.83,0,0,0,1.31.06C43.87,43.9,43.75,43.77,43.47,43.47Zm-4.12,1.14-1.12.7,1.54,1.31ZM5.08,23.34c-.53,0-1,.11-1,1.2l0,.35L5.26,25c.51,0,.74.07.79-.55A.94.94,0,0,0,5.08,23.34ZM3,23.36c-.62-.05-.85.3-.9.87a.62.62,0,0,0,.08.43.46.46,0,0,0,.32.1l1.26.11,0-.34C3.81,23.77,3.59,23.42,3,23.36Zm2.55-5.43c-1.46-.49-2.11-.21-2.31.4s.21,1.28,1.59,1.74,2.1.26,2.31-.36C7.45,18.68,6.29,18.19,5.51,17.93ZM28,1.5c-.69,0-1.18.55-1.25,2s.31,2.09,1,2.13c1.09.06,1.24-1.19,1.29-2C29.12,2.08,28.68,1.53,28,1.5ZM51.18,22.61c-.1-.68-.77-1-2.21-.83s-2,.72-1.9,1.36c.16,1.08,1.42,1,2.22.87C50.82,23.79,51.27,23.25,51.18,22.61Zm0,0c-.1-.68-.77-1-2.21-.83s-2,.72-1.9,1.36c.16,1.08,1.42,1,2.22.87C50.82,23.79,51.27,23.25,51.18,22.61ZM45.67,38l-.74,1.09,1.93.59ZM3,23.36c-.62-.05-.85.3-.9.87a.62.62,0,0,0,.08.43.46.46,0,0,0,.32.1l1.26.11,0-.34C3.81,23.77,3.59,23.42,3,23.36Zm2.71,12c-.38-.91-.79-1.07-1.38-.83s-.63.64-.38,1.23c.15.37.29.33.61.2l1.19-.49Zm-.59-12c-.53,0-1,.11-1,1.2l0,.35L5.26,25c.51,0,.74.07.79-.55A.94.94,0,0,0,5.08,23.34ZM6.3,29.47c-.16-1.08-1.42-1-2.22-.85-1.53.24-2,.78-1.88,1.42s.78,1,2.22.81S6.4,30.11,6.3,29.47ZM5.51,17.93c-1.46-.49-2.11-.21-2.31.4s.21,1.28,1.59,1.74,2.1.26,2.31-.36C7.45,18.68,6.29,18.19,5.51,17.93ZM28,1.5c-.69,0-1.18.55-1.25,2s.31,2.09,1,2.13c1.09.06,1.24-1.19,1.29-2C29.12,2.08,28.68,1.53,28,1.5ZM39.35,44.61l-1.12.7,1.54,1.31Zm4.12-1.14-.9-1-.26.24c-.52.49-.59.92-.1,1.43a.83.83,0,0,0,1.31.06C43.87,43.9,43.75,43.77,43.47,43.47Zm2.2-5.5-.74,1.09,1.93.59Zm-2.2,5.5-.9-1-.26.24c-.52.49-.59.92-.1,1.43a.83.83,0,0,0,1.31.06C43.87,43.9,43.75,43.77,43.47,43.47Zm-4.12,1.14-1.12.7,1.54,1.31ZM5.67,35.31c-.38-.91-.79-1.07-1.38-.83s-.63.64-.38,1.23c.15.37.29.33.61.2l1.19-.49Zm.63-5.84c-.16-1.08-1.42-1-2.22-.85-1.53.24-2,.78-1.88,1.42s.78,1,2.22.81S6.4,30.11,6.3,29.47ZM5.08,23.34c-.53,0-1,.11-1,1.2l0,.35L5.26,25c.51,0,.74.07.79-.55A.94.94,0,0,0,5.08,23.34ZM3,23.36c-.62-.05-.85.3-.9.87a.62.62,0,0,0,.08.43.46.46,0,0,0,.32.1l1.26.11,0-.34C3.81,23.77,3.59,23.42,3,23.36Zm2.55-5.43c-1.46-.49-2.11-.21-2.31.4s.21,1.28,1.59,1.74,2.1.26,2.31-.36C7.45,18.68,6.29,18.19,5.51,17.93ZM28,1.5c-.69,0-1.18.55-1.25,2s.31,2.09,1,2.13c1.09.06,1.24-1.19,1.29-2C29.12,2.08,28.68,1.53,28,1.5ZM51.18,22.61c-.1-.68-.77-1-2.21-.83s-2,.72-1.9,1.36c.16,1.08,1.42,1,2.22.87C50.82,23.79,51.27,23.25,51.18,22.61Zm0,0c-.1-.68-.77-1-2.21-.83s-2,.72-1.9,1.36c.16,1.08,1.42,1,2.22.87C50.82,23.79,51.27,23.25,51.18,22.61ZM45.67,38l-.74,1.09,1.93.59ZM3,23.36c-.62-.05-.85.3-.9.87a.62.62,0,0,0,.08.43.46.46,0,0,0,.32.1l1.26.11,0-.34C3.81,23.77,3.59,23.42,3,23.36Zm2.71,12c-.38-.91-.79-1.07-1.38-.83s-.63.64-.38,1.23c.15.37.29.33.61.2l1.19-.49Zm-.59-12c-.53,0-1,.11-1,1.2l0,.35L5.26,25c.51,0,.74.07.79-.55A.94.94,0,0,0,5.08,23.34ZM6.3,29.47c-.16-1.08-1.42-1-2.22-.85-1.53.24-2,.78-1.88,1.42s.78,1,2.22.81S6.4,30.11,6.3,29.47ZM5.51,17.93c-1.46-.49-2.11-.21-2.31.4s.21,1.28,1.59,1.74,2.1.26,2.31-.36C7.45,18.68,6.29,18.19,5.51,17.93ZM28,1.5c-.69,0-1.18.55-1.25,2s.31,2.09,1,2.13c1.09.06,1.24-1.19,1.29-2C29.12,2.08,28.68,1.53,28,1.5ZM39.35,44.61l-1.12.7,1.54,1.31Zm4.12-1.14-.9-1-.26.24c-.52.49-.59.92-.1,1.43a.83.83,0,0,0,1.31.06C43.87,43.9,43.75,43.77,43.47,43.47Zm2.2-5.5-.74,1.09,1.93.59Zm-2.2,5.5-.9-1-.26.24c-.52.49-.59.92-.1,1.43a.83.83,0,0,0,1.31.06C43.87,43.9,43.75,43.77,43.47,43.47Zm-4.12,1.14-1.12.7,1.54,1.31ZM5.67,35.31c-.38-.91-.79-1.07-1.38-.83s-.63.64-.38,1.23c.15.37.29.33.61.2l1.19-.49Zm.63-5.84c-.16-1.08-1.42-1-2.22-.85-1.53.24-2,.78-1.88,1.42s.78,1,2.22.81S6.4,30.11,6.3,29.47ZM5.08,23.34c-.53,0-1,.11-1,1.2l0,.35L5.26,25c.51,0,.74.07.79-.55A.94.94,0,0,0,5.08,23.34ZM3,23.36c-.62-.05-.85.3-.9.87a.62.62,0,0,0,.08.43.46.46,0,0,0,.32.1l1.26.11,0-.34C3.81,23.77,3.59,23.42,3,23.36Zm2.55-5.43c-1.46-.49-2.11-.21-2.31.4s.21,1.28,1.59,1.74,2.1.26,2.31-.36C7.45,18.68,6.29,18.19,5.51,17.93ZM28,1.5c-.69,0-1.18.55-1.25,2s.31,2.09,1,2.13c1.09.06,1.24-1.19,1.29-2C29.12,2.08,28.68,1.53,28,1.5ZM51.18,22.61c-.1-.68-.77-1-2.21-.83s-2,.72-1.9,1.36c.16,1.08,1.42,1,2.22.87C50.82,23.79,51.27,23.25,51.18,22.61Zm-4.11.53c.16,1.08,1.42,1,2.22.87,1.53-.22,2-.76,1.89-1.4s-.77-1-2.21-.83S47,22.5,47.07,23.14Zm-.21,16.51L45.67,38l-.74,1.09ZM26.5,0A26.5,26.5,0,1,0,53,26.5,26.5,26.5,0,0,0,26.5,0ZM51.41,22.54A2.11,2.11,0,0,1,49.49,25a2.22,2.22,0,0,1-2.64-1.83,2.09,2.09,0,0,1,1.91-2.46A2.2,2.2,0,0,1,51.41,22.54ZM47,12l.17-.1,1,1.8-.17.1c-.17-.25-.27-.3-.39-.23a.55.55,0,0,0-.18.22l-.76,1.35,1.32,0a.65.65,0,0,0,.39-.06c.25-.14.12-.38,0-.58l.17-.09.8,1.4-.17.09a1,1,0,0,0-.88-.43h-.17l-1.67-.08-1.16.67c-.34.2-.42.39-.19.78L45,17l-1.08-1.87.17-.1c.24.32.34.48.78.24l1-.57,1-1.93A.71.71,0,0,0,47,12ZM44.2,8.46l2.37,2.7-.69,1-.19-.13a2,2,0,0,0-.15-1.73L43,12.59c-.32.28-.32.48,0,.8l-.15.13-1.42-1.61.15-.13c.29.32.49.35.8.07L44.89,9.6a2.08,2.08,0,0,0-1.68-.36L43.11,9ZM40.07,5.15,43,7.33l-.37,1.13-.2-.05a2.33,2.33,0,0,0-.78-1.81c-.43-.32-.54-.17-.8.18l-.71.93.1.08c.48.36.75.44,1.28.08l.18.14-1,1.38-.19-.14A.88.88,0,0,0,40,8l-.11-.08-.76,1c-.21.28-.32.49,0,.74a2.51,2.51,0,0,0,2.08.36l.08.17-1,.62L37.43,8.66l.12-.16c.34.26.54.25.79-.09L40.09,6.1c.25-.33.21-.53-.14-.79ZM35.83,7l1.3-2.58c.19-.38.12-.56-.27-.76L37,3.53l1.92,1-.09.17c-.39-.19-.58-.14-.77.23L36.7,7.48c-.19.38-.11.56.27.76l-.09.17L35,7.44l.09-.17C35.44,7.46,35.64,7.41,35.83,7ZM31.35,4.09a2.31,2.31,0,0,1,2.7-1.76,1.73,1.73,0,0,1,.49.25,1.47,1.47,0,0,0,.35.21,1.19,1.19,0,0,0,.46,0h.07l0,1.37H35.1a1.81,1.81,0,0,0-1-1.57c-.87-.26-1.4.79-1.6,1.46-.42,1.39.1,2.18.74,2.37A1.61,1.61,0,0,0,34.68,6l.11.16a2,2,0,0,1-2.11.63A2.08,2.08,0,0,1,31.35,4.09ZM28,1.26a2.11,2.11,0,0,1,2.06,2.38,2.21,2.21,0,0,1-2.32,2.22,2.09,2.09,0,0,1-2-2.36A2.19,2.19,0,0,1,28,1.26Zm-5.81.36a1.94,1.94,0,0,1,.68,0,.53.53,0,0,0,.25,0,.79.79,0,0,0,.42-.3l.61,1.22L24,2.68a2.15,2.15,0,0,0-1.67-.83.67.67,0,0,0-.63.77c.09.48.62.53,1,.58l.36,0c.77.12,1.54.34,1.69,1.21a1.43,1.43,0,0,1-1.22,1.62,2.49,2.49,0,0,1-.77,0,1.08,1.08,0,0,0-.31,0c-.1,0-.15,0-.5.28L21.32,5l.22-.12a2.23,2.23,0,0,0,1.84.94.83.83,0,0,0,.74-.9c-.08-.49-.58-.55-1-.61-.83-.12-1.87-.25-2-1.25A1.28,1.28,0,0,1,22.21,1.62ZM14.48,4.4a1.85,1.85,0,0,1,.64-.21,1,1,0,0,0,.25-.07.82.82,0,0,0,.3-.42l1,1-.16.18a2.12,2.12,0,0,0-1.84-.25.68.68,0,0,0-.35.94c.24.43.76.3,1.15.22l.37-.07c.76-.14,1.55-.19,2,.59a1.42,1.42,0,0,1-.62,1.93,2.41,2.41,0,0,1-.73.24,1.32,1.32,0,0,0-.3.09c-.09.05-.13.09-.38.43l-1-1,.16-.18A2.26,2.26,0,0,0,17,8a.85.85,0,0,0,.41-1.1c-.24-.43-.73-.33-1.13-.25-.82.15-1.85.37-2.33-.53A1.26,1.26,0,0,1,14.48,4.4ZM10.71,7a1.74,1.74,0,0,1,.48-.28,1.34,1.34,0,0,0,.36-.18,1.14,1.14,0,0,0,.25-.39l0-.06L13,6.86l-.15.24a1.79,1.79,0,0,0-1.88,0c-.7.59-.11,1.61.34,2.14.94,1.11,1.88,1.11,2.39.67a1.58,1.58,0,0,0,.43-1.48h.19a2,2,0,0,1-.63,2.11,2.07,2.07,0,0,1-2.94-.33A2.3,2.3,0,0,1,10.71,7ZM8.29,9.41l.15.13c-.28.33-.27.53.05.8l2.22,1.86c.32.27.52.24.79-.09l.16.13-1.39,1.64-.15-.13c.28-.33.28-.53,0-.8L7.86,11.09c-.32-.27-.52-.24-.8.09l-.15-.12Zm-2,2.48,1.2.34-.07.22a2,2,0,0,0-1.6.67L8.7,14.88c.36.21.55.15.78-.22l.17.1L8.54,16.6l-.17-.1c.22-.37.19-.57-.17-.78L5.28,14a2.08,2.08,0,0,0,.16,1.72l-.17.16L4.4,15ZM3,18.29a2.11,2.11,0,0,1,2.85-1.36,2.22,2.22,0,0,1,1.52,2.83,2.09,2.09,0,0,1-2.82,1.32A2.19,2.19,0,0,1,3,18.29Zm-1.27,8,.18-2.17C2,22.57,2.5,22.28,3,22.32s.85.71.92,1.23H4c.19-.66.49-1.32,1.3-1.25s1.12.61,1,1.78l-.21,2.54h-.2c0-.43-.08-.59-.5-.63l-2.88-.24c-.42,0-.57.1-.6.53ZM2,30.11A2.09,2.09,0,0,1,3.87,27.6a2.21,2.21,0,0,1,2.66,1.81,2.1,2.1,0,0,1-1.9,2.47A2.18,2.18,0,0,1,2,30.11Zm2.65,7.45-.18.07-1-2.38c-.33-.82-.1-1.51.49-1.75a1.2,1.2,0,0,1,1.44.66,1.33,1.33,0,0,1,.35-.56l.47-.55c.3-.36.56-.69.4-1.18l.18-.07.57,1.37c-.11.15-.25.28-.37.43l-.56.61c-.58.63-.55.87-.46,1.1l1.25-.51c.39-.16.45-.35.29-.75L7.69,34l.82,2L8.32,36c-.16-.4-.34-.49-.73-.33l-2.67,1.1C4.53,37,4.46,37.16,4.63,37.56Zm5.39,7-.14.13L7.4,42.07,8,41l.19.08A2.26,2.26,0,0,0,8.61,43c.37.39.5.27.82,0l.86-.81-.09-.08c-.41-.44-.66-.56-1.24-.3l-.16-.17,1.26-1.18.16.17a.89.89,0,0,0,.18,1.28l.09.09.92-.86c.26-.24.4-.43.11-.74a2.56,2.56,0,0,0-2-.71l0-.17,1.13-.44,2.47,2.64-.14.14c-.3-.32-.5-.34-.8-.05l-2.11,2C9.72,44.05,9.73,44.25,10,44.57Zm4.88,3.72L13.11,47.1l.11-.16c.36.24.56.21.79-.14l.69-1-1.34-.89-.69,1c-.23.35-.18.54.18.78l-.11.17L11,45.67l.11-.16c.36.23.56.21.79-.14L13.45,43c.23-.35.18-.54-.18-.78l.11-.17,1.79,1.19-.11.16c-.36-.23-.56-.21-.79.14l-.75,1.14,1.34.89.75-1.14c.23-.35.18-.54-.18-.78l.11-.17,1.79,1.19-.11.17c-.36-.24-.56-.21-.79.14l-1.6,2.4c-.23.35-.18.55.18.79ZM20.36,46c-.4-.16-.59-.09-.74.31l-1.2,3.18A2,2,0,0,0,20.08,49l.18.14-.7,1L16.2,48.88l.12-1.23.23,0a2,2,0,0,0,.95,1.46l1.2-3.19c.15-.39.06-.57-.35-.73l.07-.18,2,.76ZM7.5,26.5a19,19,0,1,1,19,19A19,19,0,0,1,7.5,26.5Zm27.94,23-3-2.21.64,1.9c.17.48.31.74.89.6L34,50l-1.49.51-.07-.19c.51-.27.49-.5.32-1l-1.08-3.17.52-.17,3.38,2.45-.74-2.18c-.21-.62-.32-.72-1-.64l-.07-.18,1.61-.55.07.19c-.52.27-.56.47-.39,1L36,48.7a1.28,1.28,0,0,0,.79.17l.06.18Zm4.11-1.83-2.86-2.44c-.34-.3-.56-.53-1-.25l-.1-.17,1.78-1.12.1.16c-.32.22-.35.33-.25.49a1.13,1.13,0,0,0,.24.25l.56.49,1.3-.82-.09-.39a1.68,1.68,0,0,0-.17-.49c-.16-.26-.46-.21-.69-.09l-.11-.17,1.35-.85.11.17a1.19,1.19,0,0,0-.23,1.26L40.14,47Zm4.05-3.24c-1,.92-1.74.86-2.14.43-.76-.81-.05-1.63.57-2.21l.38-.36-.87-.92c-.29-.31-.48-.3-.8,0l-.14-.14,1.57-1.47.14.14c-.32.3-.34.5-.05.81l2,2.11c.29.3.49.3.8,0l.14.14Zm3.5-3.74-3.6-1.1c-.43-.13-.72-.26-1,.18l-.16-.11L43.48,38l.17.11c-.21.33-.19.44,0,.54a1.06,1.06,0,0,0,.33.14l.71.22.86-1.27-.24-.32a1.8,1.8,0,0,0-.35-.38c-.25-.17-.5,0-.67.2l-.16-.11.9-1.32.16.11a1.19,1.19,0,0,0,.3,1.24l1.92,2.73ZM49,37.4l-.18-.08c.12-.37.19-.56-.27-.76l-1.92-.84c-1-.45-1.38-1-.9-2.08.16-.36.53-.78,1-.59a.48.48,0,0,1,.26.64c-.12.27-.33.35-.73.25-.14,0-.33-.1-.4.06s.61.57.8.65l2.32,1c.39.17.53.11.76-.36l.18.08Zm1.19-7.17L50.09,30a2.1,2.1,0,0,0,1.15-1.57c0-.44-.06-.48-.46-.52l-1.28-.1,0,.29c0,.51.15.74.64.91l0,.24-1.73-.14V28.9a.74.74,0,0,0,.82-.75l0-.34-1.34-.1c-.42,0-.57.11-.6.54l-.2,0,.17-2.14h.2c0,.43.08.59.5.63l2.89.22c.41,0,.56-.1.59-.54l.2,0L51.35,30ZM42.57,42.51l-.26.24c-.52.49-.59.92-.1,1.43a.83.83,0,0,0,1.31.06c.35-.34.23-.47-.05-.77Zm-4.34,2.8,1.54,1.31-.42-2ZM27.75,5.63c1.09.06,1.24-1.19,1.29-2,.08-1.55-.36-2.1-1-2.13s-1.18.55-1.25,2S27.1,5.59,27.75,5.63Zm-23,14.44c1.43.48,2.1.26,2.31-.36.35-1-.81-1.52-1.59-1.78-1.46-.49-2.11-.21-2.31.4S3.41,19.61,4.79,20.07Zm1.51,9.4c-.16-1.08-1.42-1-2.22-.85-1.53.24-2,.78-1.88,1.42s.78,1,2.22.81S6.4,30.11,6.3,29.47Zm-.25-5a.94.94,0,0,0-1-1.11c-.53,0-1,.11-1,1.2l0,.35L5.26,25C5.77,25,6,25.07,6.05,24.45Zm-1.76,10c-.56.24-.63.64-.38,1.23.15.37.29.33.61.2l1.19-.49,0-.11C5.29,34.4,4.88,34.24,4.29,34.48ZM2.46,24.76l1.26.11,0-.34c.06-.76-.16-1.11-.79-1.17s-.85.3-.9.87a.62.62,0,0,0,.08.43A.46.46,0,0,0,2.46,24.76ZM45.67,38l-.74,1.09,1.93.59Zm5.51-15.36c-.1-.68-.77-1-2.21-.83s-2,.72-1.9,1.36c.16,1.08,1.42,1,2.22.87C50.82,23.79,51.27,23.25,51.18,22.61Zm0,0c-.1-.68-.77-1-2.21-.83s-2,.72-1.9,1.36c.16,1.08,1.42,1,2.22.87C50.82,23.79,51.27,23.25,51.18,22.61ZM28,1.5c-.69,0-1.18.55-1.25,2s.31,2.09,1,2.13c1.09.06,1.24-1.19,1.29-2C29.12,2.08,28.68,1.53,28,1.5ZM5.51,17.93c-1.46-.49-2.11-.21-2.31.4s.21,1.28,1.59,1.74,2.1.26,2.31-.36C7.45,18.68,6.29,18.19,5.51,17.93ZM3,23.36c-.62-.05-.85.3-.9.87a.62.62,0,0,0,.08.43.46.46,0,0,0,.32.1l1.26.11,0-.34C3.81,23.77,3.59,23.42,3,23.36Zm2.12,0c-.53,0-1,.11-1,1.2l0,.35L5.26,25c.51,0,.74.07.79-.55A.94.94,0,0,0,5.08,23.34ZM6.3,29.47c-.16-1.08-1.42-1-2.22-.85-1.53.24-2,.78-1.88,1.42s.78,1,2.22.81S6.4,30.11,6.3,29.47Zm-.63,5.84c-.38-.91-.79-1.07-1.38-.83s-.63.64-.38,1.23c.15.37.29.33.61.2l1.19-.49Zm33.68,9.3-1.12.7,1.54,1.31Zm4.12-1.14-.9-1-.26.24c-.52.49-.59.92-.1,1.43a.83.83,0,0,0,1.31.06C43.87,43.9,43.75,43.77,43.47,43.47Zm2.2-5.5-.74,1.09,1.93.59Zm-2.2,5.5-.9-1-.26.24c-.52.49-.59.92-.1,1.43a.83.83,0,0,0,1.31.06C43.87,43.9,43.75,43.77,43.47,43.47Zm-4.12,1.14-1.12.7,1.54,1.31ZM28,1.5c-.69,0-1.18.55-1.25,2s.31,2.09,1,2.13c1.09.06,1.24-1.19,1.29-2C29.12,2.08,28.68,1.53,28,1.5ZM5.51,17.93c-1.46-.49-2.11-.21-2.31.4s.21,1.28,1.59,1.74,2.1.26,2.31-.36C7.45,18.68,6.29,18.19,5.51,17.93ZM6.3,29.47c-.16-1.08-1.42-1-2.22-.85-1.53.24-2,.78-1.88,1.42s.78,1,2.22.81S6.4,30.11,6.3,29.47ZM5.08,23.34c-.53,0-1,.11-1,1.2l0,.35L5.26,25c.51,0,.74.07.79-.55A.94.94,0,0,0,5.08,23.34Zm.59,12c-.38-.91-.79-1.07-1.38-.83s-.63.64-.38,1.23c.15.37.29.33.61.2l1.19-.49ZM3,23.36c-.62-.05-.85.3-.9.87a.62.62,0,0,0,.08.43.46.46,0,0,0,.32.1l1.26.11,0-.34C3.81,23.77,3.59,23.42,3,23.36ZM45.67,38l-.74,1.09,1.93.59Zm5.51-15.36c-.1-.68-.77-1-2.21-.83s-2,.72-1.9,1.36c.16,1.08,1.42,1,2.22.87C50.82,23.79,51.27,23.25,51.18,22.61Zm0,0c-.1-.68-.77-1-2.21-.83s-2,.72-1.9,1.36c.16,1.08,1.42,1,2.22.87C50.82,23.79,51.27,23.25,51.18,22.61ZM28,1.5c-.69,0-1.18.55-1.25,2s.31,2.09,1,2.13c1.09.06,1.24-1.19,1.29-2C29.12,2.08,28.68,1.53,28,1.5ZM5.51,17.93c-1.46-.49-2.11-.21-2.31.4s.21,1.28,1.59,1.74,2.1.26,2.31-.36C7.45,18.68,6.29,18.19,5.51,17.93ZM3,23.36c-.62-.05-.85.3-.9.87a.62.62,0,0,0,.08.43.46.46,0,0,0,.32.1l1.26.11,0-.34C3.81,23.77,3.59,23.42,3,23.36Zm2.12,0c-.53,0-1,.11-1,1.2l0,.35L5.26,25c.51,0,.74.07.79-.55A.94.94,0,0,0,5.08,23.34ZM6.3,29.47c-.16-1.08-1.42-1-2.22-.85-1.53.24-2,.78-1.88,1.42s.78,1,2.22.81S6.4,30.11,6.3,29.47ZM39.35,44.61l-1.12.7,1.54,1.31Zm4.12-1.14-.9-1-.26.24c-.52.49-.59.92-.1,1.43a.83.83,0,0,0,1.31.06C43.87,43.9,43.75,43.77,43.47,43.47Zm2.2-5.5-.74,1.09,1.93.59Zm-2.2,5.5-.9-1-.26.24c-.52.49-.59.92-.1,1.43a.83.83,0,0,0,1.31.06C43.87,43.9,43.75,43.77,43.47,43.47Zm-4.12,1.14-1.12.7,1.54,1.31ZM28,1.5c-.69,0-1.18.55-1.25,2s.31,2.09,1,2.13c1.09.06,1.24-1.19,1.29-2C29.12,2.08,28.68,1.53,28,1.5ZM5.51,17.93c-1.46-.49-2.11-.21-2.31.4s.21,1.28,1.59,1.74,2.1.26,2.31-.36C7.45,18.68,6.29,18.19,5.51,17.93ZM6.3,29.47c-.16-1.08-1.42-1-2.22-.85-1.53.24-2,.78-1.88,1.42s.78,1,2.22.81S6.4,30.11,6.3,29.47ZM5.08,23.34c-.53,0-1,.11-1,1.2l0,.35L5.26,25c.51,0,.74.07.79-.55A.94.94,0,0,0,5.08,23.34ZM3,23.36c-.62-.05-.85.3-.9.87a.62.62,0,0,0,.08.43.46.46,0,0,0,.32.1l1.26.11,0-.34C3.81,23.77,3.59,23.42,3,23.36ZM45.67,38l-.74,1.09,1.93.59Zm5.51-15.36c-.1-.68-.77-1-2.21-.83s-2,.72-1.9,1.36c.16,1.08,1.42,1,2.22.87C50.82,23.79,51.27,23.25,51.18,22.61Zm0,0c-.1-.68-.77-1-2.21-.83s-2,.72-1.9,1.36c.16,1.08,1.42,1,2.22.87C50.82,23.79,51.27,23.25,51.18,22.61ZM28,1.5c-.69,0-1.18.55-1.25,2s.31,2.09,1,2.13c1.09.06,1.24-1.19,1.29-2C29.12,2.08,28.68,1.53,28,1.5ZM5.51,17.93c-1.46-.49-2.11-.21-2.31.4s.21,1.28,1.59,1.74,2.1.26,2.31-.36C7.45,18.68,6.29,18.19,5.51,17.93ZM39.35,44.61l-1.12.7,1.54,1.31Zm4.12-1.14-.9-1-.26.24c-.52.49-.59.92-.1,1.43a.83.83,0,0,0,1.31.06C43.87,43.9,43.75,43.77,43.47,43.47Zm2.2-5.5-.74,1.09,1.93.59Zm-2.2,5.5-.9-1-.26.24c-.52.49-.59.92-.1,1.43a.83.83,0,0,0,1.31.06C43.87,43.9,43.75,43.77,43.47,43.47Zm-4.12,1.14-1.12.7,1.54,1.31ZM28,1.5c-.69,0-1.18.55-1.25,2s.31,2.09,1,2.13c1.09.06,1.24-1.19,1.29-2C29.12,2.08,28.68,1.53,28,1.5ZM5.51,17.93c-1.46-.49-2.11-.21-2.31.4s.21,1.28,1.59,1.74,2.1.26,2.31-.36C7.45,18.68,6.29,18.19,5.51,17.93ZM45.67,38l-.74,1.09,1.93.59Zm5.51-15.36c-.1-.68-.77-1-2.21-.83s-2,.72-1.9,1.36c.16,1.08,1.42,1,2.22.87C50.82,23.79,51.27,23.25,51.18,22.61Zm0,0c-.1-.68-.77-1-2.21-.83s-2,.72-1.9,1.36c.16,1.08,1.42,1,2.22.87C50.82,23.79,51.27,23.25,51.18,22.61ZM28,1.5c-.69,0-1.18.55-1.25,2s.31,2.09,1,2.13c1.09.06,1.24-1.19,1.29-2C29.12,2.08,28.68,1.53,28,1.5ZM39.35,44.61l-1.12.7,1.54,1.31Zm4.12-1.14-.9-1-.26.24c-.52.49-.59.92-.1,1.43a.83.83,0,0,0,1.31.06C43.87,43.9,43.75,43.77,43.47,43.47Zm2.2-5.5-.74,1.09,1.93.59Zm-2.2,5.5-.9-1-.26.24c-.52.49-.59.92-.1,1.43a.83.83,0,0,0,1.31.06C43.87,43.9,43.75,43.77,43.47,43.47Zm-4.12,1.14-1.12.7,1.54,1.31ZM28,1.5c-.69,0-1.18.55-1.25,2s.31,2.09,1,2.13c1.09.06,1.24-1.19,1.29-2C29.12,2.08,28.68,1.53,28,1.5ZM45.67,38l-.74,1.09,1.93.59Zm5.51-15.36c-.1-.68-.77-1-2.21-.83s-2,.72-1.9,1.36c.16,1.08,1.42,1,2.22.87C50.82,23.79,51.27,23.25,51.18,22.61Zm0,0c-.1-.68-.77-1-2.21-.83s-2,.72-1.9,1.36c.16,1.08,1.42,1,2.22.87C50.82,23.79,51.27,23.25,51.18,22.61ZM28,1.5c-.69,0-1.18.55-1.25,2s.31,2.09,1,2.13c1.09.06,1.24-1.19,1.29-2C29.12,2.08,28.68,1.53,28,1.5ZM39.35,44.61l-1.12.7,1.54,1.31Zm4.12-1.14-.9-1-.26.24c-.52.49-.59.92-.1,1.43a.83.83,0,0,0,1.31.06C43.87,43.9,43.75,43.77,43.47,43.47Zm2.2-5.5-.74,1.09,1.93.59Zm-2.2,5.5-.9-1-.26.24c-.52.49-.59.92-.1,1.43a.83.83,0,0,0,1.31.06C43.87,43.9,43.75,43.77,43.47,43.47Zm-4.12,1.14-1.12.7,1.54,1.31ZM28,1.5c-.69,0-1.18.55-1.25,2s.31,2.09,1,2.13c1.09.06,1.24-1.19,1.29-2C29.12,2.08,28.68,1.53,28,1.5ZM45.67,38l-.74,1.09,1.93.59Zm5.51-15.36c-.1-.68-.77-1-2.21-.83s-2,.72-1.9,1.36c.16,1.08,1.42,1,2.22.87C50.82,23.79,51.27,23.25,51.18,22.61Zm0,0c-.1-.68-.77-1-2.21-.83s-2,.72-1.9,1.36c.16,1.08,1.42,1,2.22.87C50.82,23.79,51.27,23.25,51.18,22.61ZM28,1.5c-.69,0-1.18.55-1.25,2s.31,2.09,1,2.13c1.09.06,1.24-1.19,1.29-2C29.12,2.08,28.68,1.53,28,1.5ZM39.35,44.61l-1.12.7,1.54,1.31Zm4.12-1.14-.9-1-.26.24c-.52.49-.59.92-.1,1.43a.83.83,0,0,0,1.31.06C43.87,43.9,43.75,43.77,43.47,43.47Zm2.2-5.5-.74,1.09,1.93.59Zm-2.2,5.5-.9-1-.26.24c-.52.49-.59.92-.1,1.43a.83.83,0,0,0,1.31.06C43.87,43.9,43.75,43.77,43.47,43.47Zm-4.12,1.14-1.12.7,1.54,1.31ZM28,1.5c-.69,0-1.18.55-1.25,2s.31,2.09,1,2.13c1.09.06,1.24-1.19,1.29-2C29.12,2.08,28.68,1.53,28,1.5ZM45.67,38l-.74,1.09,1.93.59Zm5.51-15.36c-.1-.68-.77-1-2.21-.83s-2,.72-1.9,1.36c.16,1.08,1.42,1,2.22.87C50.82,23.79,51.27,23.25,51.18,22.61Zm0,0c-.1-.68-.77-1-2.21-.83s-2,.72-1.9,1.36c.16,1.08,1.42,1,2.22.87C50.82,23.79,51.27,23.25,51.18,22.61Zm-11.83,22-1.12.7,1.54,1.31Zm4.12-1.14-.9-1-.26.24c-.52.49-.59.92-.1,1.43a.83.83,0,0,0,1.31.06C43.87,43.9,43.75,43.77,43.47,43.47Zm2.2-5.5-.74,1.09,1.93.59Zm-2.2,5.5-.9-1-.26.24c-.52.49-.59.92-.1,1.43a.83.83,0,0,0,1.31.06C43.87,43.9,43.75,43.77,43.47,43.47Zm-4.12,1.14-1.12.7,1.54,1.31ZM45.67,38l-.74,1.09,1.93.59Zm5.51-15.36c-.1-.68-.77-1-2.21-.83s-2,.72-1.9,1.36c.16,1.08,1.42,1,2.22.87C50.82,23.79,51.27,23.25,51.18,22.61Zm0,0c-.1-.68-.77-1-2.21-.83s-2,.72-1.9,1.36c.16,1.08,1.42,1,2.22.87C50.82,23.79,51.27,23.25,51.18,22.61Zm-11.83,22-1.12.7,1.54,1.31Zm4.12-1.14-.9-1-.26.24c-.52.49-.59.92-.1,1.43a.83.83,0,0,0,1.31.06C43.87,43.9,43.75,43.77,43.47,43.47Zm2.2-5.5-.74,1.09,1.93.59Zm-2.2,5.5-.9-1-.26.24c-.52.49-.59.92-.1,1.43a.83.83,0,0,0,1.31.06C43.87,43.9,43.75,43.77,43.47,43.47Zm-4.12,1.14-1.12.7,1.54,1.31ZM45.67,38l-.74,1.09,1.93.59Zm5.51-15.36c-.1-.68-.77-1-2.21-.83s-2,.72-1.9,1.36c.16,1.08,1.42,1,2.22.87C50.82,23.79,51.27,23.25,51.18,22.61Zm0,0c-.1-.68-.77-1-2.21-.83s-2,.72-1.9,1.36c.16,1.08,1.42,1,2.22.87C50.82,23.79,51.27,23.25,51.18,22.61Zm-11.83,22-1.12.7,1.54,1.31Zm4.12-1.14-.9-1-.26.24c-.52.49-.59.92-.1,1.43a.83.83,0,0,0,1.31.06C43.87,43.9,43.75,43.77,43.47,43.47Zm2.2-5.5-.74,1.09,1.93.59Zm-2.2,5.5-.9-1-.26.24c-.52.49-.59.92-.1,1.43a.83.83,0,0,0,1.31.06C43.87,43.9,43.75,43.77,43.47,43.47Zm-4.12,1.14-1.12.7,1.54,1.31ZM45.67,38l-.74,1.09,1.93.59Zm-6.32,6.64-1.12.7,1.54,1.31Zm4.12-1.14-.9-1-.26.24c-.52.49-.59.92-.1,1.43a.83.83,0,0,0,1.31.06C43.87,43.9,43.75,43.77,43.47,43.47Zm2.2-5.5-.74,1.09,1.93.59Zm-2.2,5.5-.9-1-.26.24c-.52.49-.59.92-.1,1.43a.83.83,0,0,0,1.31.06C43.87,43.9,43.75,43.77,43.47,43.47Zm-4.12,1.14-1.12.7,1.54,1.31ZM45.67,38l-.74,1.09,1.93.59Zm-6.32,6.64-1.12.7,1.54,1.31Zm4.12-1.14-.9-1-.26.24c-.52.49-.59.92-.1,1.43a.83.83,0,0,0,1.31.06C43.87,43.9,43.75,43.77,43.47,43.47Zm0,0-.9-1-.26.24c-.52.49-.59.92-.1,1.43a.83.83,0,0,0,1.31.06C43.87,43.9,43.75,43.77,43.47,43.47Zm-4.12,1.14-1.12.7,1.54,1.31Z"/>
			<path d="M39.09,40.6H31.3c-1.19,0-3.86-11-3.86-11,0-.39,0-1.47-.6-1.52-.73,3-1.6,6-2.58,9-.48,1.37-1,3.53-2.34,3.51H14.27C18.17,38.15,20,34.16,22.13,30c.84-2.11,3.08-5.29,1.44-6.86S19.12,25,16.85,24.25a2.72,2.72,0,0,1-2-2.16c-.7-3,.13-7.23.34-10.25,0,0,.81,2.08,1.15,3.08a3.61,3.61,0,0,0,.74,1.4,10.72,10.72,0,0,0,6.36,3.85c5.93.76,11.37-3.92,17-1.05,1.66,1,2.22,2.43,2.5,4.9.11,1.94-1,3.52-2.59,4.76-2.33,1.53-5.13,1-8.15.08a18.3,18.3,0,0,1-4.6-2.15,21.12,21.12,0,0,0,3.6.57c2,.18,4.15-.1,5-1.89a3.35,3.35,0,0,0-.59-3.9c-1.7-1.35-3.77-.71-5.42-.32C27.57,22,28.09,25,27.13,27h0c.77.23,1.88.52,2.2,1.39C31.71,32.73,34.23,38.52,39.09,40.6Z"/>
			<path d="M27.15,8.58A4.88,4.88,0,1,0,32,13.46,4.88,4.88,0,0,0,27.15,8.58Z"/>
		</g>
		
		<g>
			<path d="M60,9.05H73.65c3,0,4,1.45,5,2.81S80,15.14,80,18.11a6.8,6.8,0,0,1-1.6,4.72,4.83,4.83,0,0,1-3.57,2.47,7,7,0,0,1,3.63,2.23,10.8,10.8,0,0,1,1.38,3.25c.15.63,0,2.26,0,5.08V44h-8V35.11a15.41,15.41,0,0,0-.45-4.58,3.71,3.71,0,0,0-3.31-2.24V44H60Zm8.12,3.57V22.84a4,4,0,0,0,2.24-.45,3.92,3.92,0,0,0,1.52-3.18V16.3a3.38,3.38,0,0,0-.77-2.37A3.49,3.49,0,0,0,68.12,12.62Z"/>
			<path d="M102.51,20.56H94.7V14.31a1.41,1.41,0,0,0-1.47-1.42,1.61,1.61,0,0,0-1.67,1.5V19.2a3.16,3.16,0,0,0,.67,2c.61.71,1.63,1.17,5.43,4.59,1.84,1.66,3.65,3,4.34,4s.67,1.94.67,4c0,2.53.08,4.76-.59,6.08s-3.86,4.13-9.79,4.13c-5,0-9.61-2.15-9.61-6.55V31.53H91V38c0,1.63.88,1.8,1.52,1.8s1.57-.36,1.57-2.13V34.33A6.34,6.34,0,0,0,93.86,32a8,8,0,0,0-2-2.42L86.3,25.13a13.58,13.58,0,0,1-3.12-3.63c-.44-1-.26-2.25-.26-3.72,0-2.15-.1-3.55.58-4.77s2.26-2.12,3.76-2.88A12.35,12.35,0,0,1,93,9a11.92,11.92,0,0,1,7.56,2.43c1.58,1.33,1.93,2.35,1.93,4.49Z"/>
			<path d="M105.34,25.11h7.73V37.28a3.52,3.52,0,0,0,.41,2.16c.29.41.5.44,1.25.44s.63-.11,1-.47a3.07,3.07,0,0,0,.38-1.9V9H125V34.48c0,2,0,4.79-.71,6.23a4.21,4.21,0,0,1-2.59,2.59c-1.62.79-4.59.67-6.76.67-2.9,0-5.71.05-7.6-1.34s-2-4-2-6.9Z"/>
		</g>
		
		<g>
			<path d="M132,25V9h14.92V25ZM144.7,11H134.2V16h10.5Zm0,7H134.2v5h10.5Z"/>
			<path d="M158.26,13v7.13h3.06v2.17h-3.06v3.11h-2.2V22.34h-3.11V20.17h3.11V13H156c-.87,3.8-3.48,8.08-7.09,10.2v-2.9a13.66,13.66,0,0,0,5-7.3h-5V10.86h7.15V8.45h2.2v2.41h7.12V13h-5a13.55,13.55,0,0,0,5,7.3v2.9C161.76,21.12,159.15,16.84,158.26,13Z"/>
			<path d="M167.55,24.35V9.56h14.18V24.35Zm11.91-12.47h-9.64V22.05h9.64Z"/>
			<path d="M186.4,24.72H184a45.52,45.52,0,0,0,1.68-9.53H188A48.61,48.61,0,0,1,186.4,24.72ZM193,13.13v11.7h-2.27V13.13h-6.68V10.79h6.68V9H193v1.84h2.89v1.46h2.4v.88Zm4.26,11.59a61,61,0,0,0-1.55-9.53H198a64.71,64.71,0,0,1,1.61,9.53Zm-.59-13.28V8.5h1.26v2.94Zm2.11,0V8.5H200v2.94Z"/>
			<path d="M202.52,19.2,202,12.09h1.89l.56,7.11Zm2.06,5.6h-1.84V22.86h1.84c5.36,0,8-2.24,8-6.76V12h1.89v4.29C214.43,21.82,211.24,24.8,204.58,24.8Zm2.29-5.6-.5-7.11h1.87l.56,7.11Z"/>
			<path d="M219.32,16.83v8H217V9h2.37V14.3c2.72,1.43,7.2,2.14,11,2.14v2.37A28.18,28.18,0,0,1,219.32,16.83Z"/>
			<path d="M245.91,14.78V12.7H233.55v2.08h-2.06V10.66h2a6.62,6.62,0,0,0-.67-2.21H235a10.35,10.35,0,0,1,.66,2.21h2.89a7.41,7.41,0,0,0-.68-2.21H240a7.16,7.16,0,0,1,.67,2.21h2.89l.81-2.21h2.27l-.79,2.21H248v4.12Zm-4.86,6.11v2.38A2,2,0,0,1,239,25.45h-3.64V23.33h2.85a.63.63,0,0,0,.65-.63V20.89h-7.33V18.81h7.33V17.64a8.65,8.65,0,0,0,3.23-1.45h-7.73v-2h10.81V16a10.32,10.32,0,0,1-4.08,2.34v.46H248v2.08Z"/>
			<path d="M264.57,14.5v1.75H251V14.47c-.49.13-1,.24-1.48.33V12.42c3-.43,5.48-1.74,6.75-4h3c1.27,2.23,3.68,3.56,6.75,4V14.8C265.53,14.73,265,14.61,264.57,14.5Zm-1,11L263,24.22c-2.41.91-5,1-9.63,1h-3.84v-2h1.6l1.3-3h-2.9V18.14H266v2.09H255l-1.34,3c3.86,0,6.43-.13,8.59-.73l-.72-1.59h2.43L266,25.45Zm-5.83-15A11.48,11.48,0,0,1,252,14.19h11.55A11.5,11.5,0,0,1,257.75,10.42Z"/>
		</g>
		
		<g>
			<path d="M134.62,43.06V34.89H132V33.57h6.73v1.32H136.1v8.17Z"/>
			<path d="M143.59,35.75c1.79,0,2.27,1.16,2.27,2.44v4.87h-1.43v-4.5c0-.91-.3-1.59-1.27-1.59a2.28,2.28,0,0,0-1.72.79v5.3H140V33.25l1.45-.22v3.61A3.11,3.11,0,0,1,143.59,35.75Z"/>
			<path d="M151.36,42a5.25,5.25,0,0,0,2-.41l.26,1.19a5.9,5.9,0,0,1-2.41.48c-2.51,0-3.52-1.59-3.52-3.7s1.14-3.93,3.32-3.93c1.94,0,2.71,1.36,2.71,3.23v.87h-4.59A2,2,0,0,0,151.35,42Zm-.47-5.22a1.84,1.84,0,0,0-1.69,1.89h3.23c0-1.17-.41-1.89-1.53-1.89Z"/>
			<path d="M163.27,40.65c-.47-1.06-.82-1.47-1.57-1.47h-1.32v3.88H159V33.57h2.22c2,0,3.68.4,3.68,2.59a2.27,2.27,0,0,1-1.62,2.39,2.31,2.31,0,0,1,1.14,1.25c.32.77,1,2.31,1.35,3.26h-1.57C164,42.41,163.58,41.38,163.27,40.65Zm.18-4.33c0-1.18-.88-1.46-2.09-1.46h-1V38h1.7A1.53,1.53,0,0,0,163.45,36.32Z"/>
			<path d="M173.54,39.44c0,1.84-.77,3.88-3.38,3.88s-3.36-2-3.36-3.89.77-3.81,3.36-3.81,3.38,2,3.38,3.81Zm-3.36,2.62c1.2,0,1.88-.85,1.88-2.65s-.68-2.56-1.9-2.56-1.88.8-1.88,2.56.67,2.65,1.88,2.65Z"/>
			<path d="M175.42,43.06V33.25l1.41-.22v3.68a2.67,2.67,0,0,1,2.12-1c1.81,0,2.74,1.35,2.74,3.63,0,2.11-.75,3.92-2.95,3.92a3,3,0,0,1-2-.83l-.18.65Zm1.37-3a6.35,6.35,0,0,0,.07,1.11,2,2,0,0,0,1.64.85c1.3,0,1.72-1.11,1.72-2.64,0-1.36-.42-2.41-1.56-2.41a2,2,0,0,0-1.8,1.17,5.48,5.48,0,0,0-.07,1Z"/>
			<path d="M189.92,39.44c0,1.84-.77,3.88-3.38,3.88s-3.36-2-3.36-3.89.77-3.81,3.36-3.81,3.38,2,3.38,3.81Zm-3.37,2.62c1.21,0,1.89-.85,1.89-2.65s-.68-2.56-1.9-2.56-1.88.8-1.88,2.56.67,2.65,1.88,2.65Z"/>
			<path d="M194.65,42v1.13l-.66,0c-1.19.07-2-.38-2-1.7V37.13h-1.11V36H192V34.34l1.41-.37v2h1.46v1.16h-1.46v3.73c0,.84.18,1.1.8,1.1Z"/>
			<path d="M197.89,34.81h-1.5V33.45h1.5Zm0,8.25h-1.45V35.88h1.45Z"/>
			<path d="M199.73,39.53c0-2,.77-3.87,3.46-3.87a5.42,5.42,0,0,1,1.63.26l-.26,1.25a4,4,0,0,0-1.35-.25c-1.46,0-2,1.09-2,2.62s.63,2.46,2.08,2.46a3.81,3.81,0,0,0,1.39-.26l.21,1.27a5.22,5.22,0,0,1-1.68.26c-2.68,0-3.45-1.81-3.45-3.73Z"/>
			<path d="M210.11,37.21a3.83,3.83,0,0,0-1.54-.36c-.44,0-1,.16-1,.83,0,.48.33.7,1.21,1.13s1.84,1,1.84,2.24a2.08,2.08,0,0,1-2.32,2.21,7.51,7.51,0,0,1-2.4-.43l.32-1.26a5.43,5.43,0,0,0,1.94.44c.55,0,1-.18,1-.9,0-.56-.49-.86-1.43-1.31s-1.61-.9-1.61-2c0-1.69,1.41-2.06,2.45-2.06a5.78,5.78,0,0,1,1.89.32Z"/>
			<path d="M220.25,35.24a4.64,4.64,0,0,0-1.9-.51c-.66,0-1.52.24-1.52,1.26,0,.72.67,1.07,1.56,1.5,1.36.67,2.48,1.3,2.48,2.94A2.57,2.57,0,0,1,218,43.22a7.81,7.81,0,0,1-2.92-.59l.38-1.37a6.26,6.26,0,0,0,2.47.62,1.28,1.28,0,0,0,1.45-1.36c0-.77-.59-1.23-1.8-1.78s-2.21-1.14-2.21-2.66a2.59,2.59,0,0,1,2.84-2.67,6,6,0,0,1,2.46.52Z"/>
			<path d="M229.06,39.44c0,1.84-.77,3.88-3.38,3.88s-3.36-2-3.36-3.89.77-3.81,3.36-3.81,3.38,2,3.38,3.81Zm-3.37,2.62c1.21,0,1.89-.85,1.89-2.65s-.68-2.56-1.9-2.56-1.88.8-1.88,2.56.67,2.65,1.88,2.65Z"/>
			<path d="M230.55,39.53c0-2,.77-3.87,3.46-3.87a5.42,5.42,0,0,1,1.63.26l-.26,1.25a4,4,0,0,0-1.35-.25c-1.46,0-2,1.09-2,2.62s.63,2.46,2.08,2.46a3.91,3.91,0,0,0,1.4-.26l.2,1.27a5.17,5.17,0,0,1-1.68.26c-2.68,0-3.45-1.81-3.45-3.73Z"/>
			<path d="M238.73,34.81h-1.5V33.45h1.5Zm0,8.25h-1.45V35.88h1.45Z"/>
			<path d="M244.21,42a5.21,5.21,0,0,0,2-.41l.27,1.19a6,6,0,0,1-2.42.48c-2.51,0-3.52-1.59-3.52-3.7s1.14-3.93,3.33-3.93c1.93,0,2.7,1.36,2.7,3.23v.87H242A2,2,0,0,0,244.2,42Zm-.46-5.22a1.84,1.84,0,0,0-1.7,1.89h3.23c0-1.17-.41-1.89-1.52-1.89Z"/>
			<path d="M251.33,42v1.13l-.66,0c-1.19.07-2-.38-2-1.7V37.13H247.6V36h1.11V34.34l1.42-.37v2h1.45v1.16h-1.45v3.73c0,.84.18,1.1.79,1.1Z"/>
			<path d="M257.13,35.88h1.59c-.58,1.8-1.67,5.09-2.38,6.92a11.28,11.28,0,0,1-1.69,3.2l-1.41-.64A8.46,8.46,0,0,0,255,42.57l-2.72-6.69h1.61L255.67,41C256.17,39.48,256.77,37.33,257.13,35.88Z"/>
			<path d="M269.66,39.44c0,1.84-.77,3.88-3.37,3.88s-3.37-2-3.37-3.89.77-3.81,3.37-3.81,3.37,2,3.37,3.81Zm-3.36,2.62c1.2,0,1.89-.85,1.89-2.65s-.69-2.56-1.9-2.56-1.89.8-1.89,2.56.68,2.65,1.89,2.65Z"/>
			<path d="M270.7,37.13V36h1.19v-.3c0-1.18.47-2.67,2.41-2.67a5.13,5.13,0,0,1,1.29.15l-.21,1.21a3.83,3.83,0,0,0-.9-.12c-.86,0-1.18.44-1.18,1.48V36h1.54v1.16H273.3v5.93h-1.41V37.13Z"/>
			<path d="M279.65,33.57h1.48v8.08a3.54,3.54,0,0,1-2.29,3.55l-.74-1.11c1.29-.55,1.55-1.26,1.55-2.78Z"/>
			<path d="M289,43l-1.21.23a2.55,2.55,0,0,1-.44-1.18,2.34,2.34,0,0,1-2.12,1.21A2.08,2.08,0,0,1,282.93,41c0-1.73.9-2.25,4.2-2.4v-.48c0-.73-.14-1.21-1.25-1.21a4.4,4.4,0,0,0-2.08.57l-.31-1.24a6.23,6.23,0,0,1,2.55-.57c1.84,0,2.44.79,2.44,2.44v2.79A3.51,3.51,0,0,0,289,43Zm-4.68-2A1,1,0,0,0,285.47,42a1.71,1.71,0,0,0,1.66-1.32v-1C284.94,39.81,284.28,40,284.28,41Z"/>
			<path d="M294.28,35.69c1.8,0,2.72,1.35,2.72,3.63,0,2.11-.74,3.92-2.94,3.92a2.63,2.63,0,0,1-1.92-.82V45.9h-1.42V37.44a5.78,5.78,0,0,0-.17-1.48l1.31-.19a2.87,2.87,0,0,1,.25,1,2.64,2.64,0,0,1,2.15-1.1ZM292.09,40a6.35,6.35,0,0,0,.07,1.11,2,2,0,0,0,1.65.85c1.29,0,1.71-1.11,1.71-2.64,0-1.36-.43-2.41-1.57-2.41a2,2,0,0,0-1.79,1.17,5.48,5.48,0,0,0-.07,1Z"/>
			<path d="M304.36,43l-1.22.23A2.55,2.55,0,0,1,302.7,42a2.34,2.34,0,0,1-2.11,1.21A2.08,2.08,0,0,1,298.33,41c0-1.73.9-2.25,4.19-2.4v-.48c0-.73-.13-1.21-1.25-1.21a4.4,4.4,0,0,0-2.08.57l-.31-1.24a6.28,6.28,0,0,1,2.56-.57c1.84,0,2.44.79,2.44,2.44v2.79A3.44,3.44,0,0,0,304.36,43Zm-4.69-2A1,1,0,0,0,300.86,42a1.71,1.71,0,0,0,1.66-1.32v-1C300.33,39.81,299.67,40,299.67,41Z"/>
			<path d="M307.27,35.77a5.37,5.37,0,0,1,.23.94,3.12,3.12,0,0,1,2.22-1c1.8,0,2.28,1.16,2.28,2.44v4.87h-1.44v-4.5c0-.91-.3-1.59-1.27-1.59a2.36,2.36,0,0,0-1.73.77v5.32h-1.45V37.44A5.79,5.79,0,0,0,306,36Z"/>
		</g>
</svg>
